<svg xmlns="http://www.w3.org/2000/svg" viewBox="0 0 72 72" role="img" aria-labelledby="cpa-title cpa-desc">
  <title id="cpa-title">CPA Relay</title>
  <desc id="cpa-desc">An open compatibility ring surrounding a protected proxy gateway.</desc>
  <circle cx="36" cy="36" r="31" fill="#120912" stroke="#4c1d3f" stroke-width="2"/>
  <path d="M53 14A26 26 0 1 0 55 56" fill="none" stroke="#f472b6" stroke-width="4" stroke-linecap="round"/>
  <path d="M55 14v11H44" fill="none" stroke="#67e8f9" stroke-width="3" stroke-linecap="round" stroke-linejoin="round"/>
  <path d="M26 51V22h12c8 0 13 4 13 11s-5 11-13 11H26" fill="none" stroke="#facc15" stroke-width="3.5" stroke-linecap="round" stroke-linejoin="round"/>
  <path d="M33 29h6c3 0 5 1 5 4s-2 4-5 4h-6" fill="none" stroke="#fdf4cb" stroke-width="2.5" stroke-linecap="round"/>
  <path d="m44 53 6-11 6 11M47 49h6" fill="none" stroke="#67e8f9" stroke-width="2.5" stroke-linecap="round" stroke-linejoin="round"/>
  <circle cx="55" cy="56" r="4" fill="#160b15" stroke="#f472b6" stroke-width="2.5"/>
  <circle cx="55" cy="14" r="3" fill="#cffafe"/>
</svg>
