<svg xmlns="http://www.w3.org/2000/svg" width="1200" height="630" viewBox="0 0 1200 630" role="img" aria-labelledby="title desc">
  <title id="title">ByteForge</title>
  <desc id="desc">ByteForge social preview image</desc>
  <defs>
    <radialGradient id="core" cx="50%" cy="50%" r="55%">
      <stop offset="0" stop-color="#fdf4cb"/>
      <stop offset="0.18" stop-color="#fabd2f"/>
      <stop offset="0.38" stop-color="#ff7420" stop-opacity="0.35"/>
      <stop offset="1" stop-color="#12191a" stop-opacity="0"/>
    </radialGradient>
    <linearGradient id="bg" x1="0" x2="1" y1="0" y2="1">
      <stop offset="0" stop-color="#171d1e"/>
      <stop offset="0.55" stop-color="#12191a"/>
      <stop offset="1" stop-color="#0d1415"/>
    </linearGradient>
  </defs>
  <rect width="1200" height="630" fill="url(#bg)"/>
  <path d="M0 118h1200M0 246h1200M0 374h1200M0 502h1200" stroke="#8ec07c" stroke-opacity="0.12"/>
  <path d="M140 0v630M330 0v630M570 0v630M830 0v630M1060 0v630" stroke="#83a598" stroke-opacity="0.10"/>
  <circle cx="760" cy="315" r="300" fill="url(#core)" opacity="0.9"/>
  <circle cx="760" cy="315" r="46" fill="#fdf4cb" opacity="0.96"/>
  <g fill="none" stroke-linecap="round">
    <path d="M612 275c78-72 202-76 284-8" stroke="#8ec07c" stroke-width="5" stroke-opacity="0.82"/>
    <path d="M906 356c-82 76-214 76-300-2" stroke="#ff7420" stroke-width="5" stroke-opacity="0.86"/>
    <circle cx="612" cy="275" r="8" fill="#8ec07c" stroke="none"/>
    <circle cx="906" cy="356" r="8" fill="#ff7420" stroke="none"/>
  </g>
  <g font-family="Fira Code, JetBrains Mono, Consolas, monospace">
    <text x="88" y="198" fill="#ff7420" font-size="28" font-weight="600">&lt;B/&gt; THE BYTE FORGE</text>
    <text x="86" y="314" fill="#f2f4ea" font-size="88" font-weight="700">byte<tspan fill="#ff7420">Forge</tspan>()</text>
    <text x="92" y="384" fill="#8ec07c" font-size="30">&gt;_ systems, notes, deployments</text>
    <text x="92" y="440" fill="#ebdbb2" fill-opacity="0.72" font-size="25">Built on code, protocols, and practical engineering logs.</text>
  </g>
</svg>
